/* XPM */
static char *e94c98b10b4f46a9d2165cc634a728f8Demi3OMSbKS5dxTW[] = {
/* columns rows colors chars-per-pixel */
"32 32 17 1 ",
"  c #544B58",
". c #18140E",
"X c black",
"o c #2E2F2F",
"O c #748C9B",
"+ c #544B57",
"@ c #18130E",
"# c #748D9B",
"$ c #544C58",
"% c #2E3030",
"& c #544C57",
"* c #18130F",
"= c #72683E",
"- c #FFF83A",
"; c #F8D634",
": c #010000",
"> c #DFB500",
/* pixels */
"  .XoO++++++++@XoO++++++@Xo#$$$$",
"oo XOooooooooo+XOooooooo+XOo%%%%",
"oooX ooooooooooXOooooooo+X&o%%%%",
"oooX ooooooooooX+ooooooooX&o%%%%",
"oo.X ooooooooo@X+ooooooo@X&o%%%%",
"oo.X ooooooooo@X+ooooooo@X&o%%%%",
"..XX.+oo@o@@@@XX@+oo@o@@XX@&%%*%",
"XXXXXXXXXXXXX======XXXXXXXXXXXXX",
"     ++@XoO+=--=---=XoO+++&&$*X%",
"ooooooo+XOo=;;=-;;;-=Ooooooo%$:#",
"ooooooooX+=--=----;;-=oooooo%%:$",
"ooooooo@X+=;;=----;;-=oooooo%*X$",
"ooooooo@X+=--=----;;-=oooooo%*X$",
"o.o..@@XX=;;=-;----;;-=oo@o@*XX*",
"XXXXXXXXX=--=-;----;;-=XXXXX:XXX",
"  .XoO+++=--=;;----;;;=@XoO&$$$$",
"oo XOoooo=;;=;;>---;;;=+XOoo%%%%",
"oooX oooo=--=;;;-->;;;=oX+oo%%%%",
"oo.X oooo=;;=;;---;;;;=oX+oo%%%%",
"oo.X ooooo=>>=>--->;;=o@X+oo%%%%",
"oo.X ooooo=;;=>----;>=o@X+oo%%%%",
"oo.X ooooo=>>=>>>>>;>=o@X+oo%%%%",
"..XX.+oo@o@=;;=>;;;;=@@XX@&o%***",
"XXXXXXXXXXXX=>>=>>>=XXXXXXXXXXXX",
"     ++@XoO++======@XoO+++&&$*X%",
"ooooooo+XOooooooooo+XOoooooo%$:#",
"ooooooooX+ooooooooooX+oooooo%%:$",
"ooooooo@X+ooooooooo@X+oooooo%*X$",
"ooooooo@X+ooooooooo@X+oooooo%*X$",
"ooooooo@X+ooooooooo@X+oooooo%*X$",
"o.o..@@XX@+oo@o@@@@XX@+oo@o@*XX*",
"XXXXXXXXXXXXXXXXXXXXXXXXXXXX:XXX"
};
