/* XPM */
static char *_791010544244859b943ea8530ac0207qceAdym4rJTJkwRU[] = {
/* columns rows colors chars-per-pixel */
"64 64 240 2 ",
"   c #0C0C0B",
".  c #050505",
"X  c #150E0C",
"o  c #1B120E",
"O  c #141313",
"+  c #1C1613",
"@  c #1D1B1A",
"#  c #1B1918",
"$  c #0D1010",
"%  c #25140E",
"&  c #231612",
"*  c #2B1C15",
"=  c #211E1D",
"-  c #261A14",
";  c #331B14",
":  c #2D211A",
">  c #28201C",
",  c #34241B",
"<  c #3A271D",
"1  c #2C2B2A",
"2  c #272423",
"3  c #3C2B21",
"4  c #322E2D",
"5  c #352A22",
"6  c #38312C",
"7  c #343232",
"8  c #3A3534",
"9  c #3E3936",
"0  c #3C3A3A",
"q  c #363D3D",
"w  c #2E3232",
"e  c #1D2D30",
"r  c #48291D",
"t  c #432E22",
"y  c #453124",
"u  c #49362A",
"i  c #573A2B",
"p  c #423D3B",
"a  c #443A34",
"s  c #563D31",
"d  c #623D2A",
"f  c #6C3E32",
"g  c #3F423B",
"h  c #45403E",
"j  c #4B413D",
"k  c #584438",
"l  c #5C412E",
"z  c #674837",
"x  c #734B38",
"c  c #704E36",
"v  c #3B4948",
"b  c #454242",
"n  c #4B4543",
"m  c #4D4A48",
"M  c #514946",
"N  c #534D4B",
"B  c #594F4C",
"V  c #56514E",
"C  c #59514F",
"Z  c #555251",
"A  c #5C5452",
"S  c #5D5956",
"D  c #5E5A58",
"F  c #505F5F",
"G  c #465758",
"H  c #765846",
"J  c #605755",
"K  c #625956",
"L  c #645C5A",
"P  c #695E5B",
"I  c #634F44",
"U  c #6A615E",
"Y  c #68605B",
"T  c #7B634F",
"R  c #546C6C",
"E  c #6D6461",
"W  c #686A68",
"Q  c #746A65",
"!  c #736A66",
"~  c #79716C",
"^  c #787A77",
"/  c #697572",
"(  c #59625D",
")  c #865A47",
"_  c #8E5D4D",
"`  c #AA5856",
"'  c #86654D",
"]  c #8A6B54",
"[  c #8D6D5A",
"{  c #856755",
"}  c #926E5B",
"|  c #966956",
" . c #94725C",
".. c #9A765D",
"X. c #9B7459",
"o. c #8F6C56",
"O. c #A4695A",
"+. c #A4775C",
"@. c #9D7A63",
"#. c #997763",
"$. c #847D79",
"%. c #8B7464",
"&. c #A27C62",
"*. c #AA7B65",
"=. c #B77E6D",
"-. c #C8766F",
";. c #6F837D",
":. c #968574",
">. c #A98469",
",. c #B38B6D",
"<. c #B68569",
"1. c #B88A73",
"2. c #B99379",
"3. c #AA8C74",
"4. c #C68975",
"5. c #C39374",
"6. c #CC9B7B",
"7. c #C79778",
"8. c #D39D7C",
"9. c #D09A77",
"0. c #C3906E",
"q. c #D8A27F",
"w. c #CEA17D",
"e. c #607F83",
"r. c #5C888E",
"t. c #779798",
"y. c #728F8F",
"u. c #699DA3",
"i. c #769FA3",
"p. c #64A5AB",
"a. c #6DA5AA",
"s. c #6CA9AE",
"d. c #6CA3A8",
"f. c #74A2A6",
"g. c #7BA3A5",
"h. c #73A6AB",
"j. c #7AA6A9",
"k. c #74AAAE",
"l. c #7CABAD",
"z. c #6DACB2",
"x. c #67AAB2",
"c. c #74ADB2",
"v. c #7BAEB2",
"b. c #6CB1B6",
"n. c #6FB3B9",
"m. c #67B1B9",
"M. c #74B1B5",
"N. c #7BB2B5",
"B. c #74B4B9",
"V. c #7CB5BA",
"C. c #7DB8BD",
"Z. c #7EB0AF",
"A. c #979B98",
"S. c #8B918C",
"D. c #AE948A",
"F. c #94A39C",
"G. c #84A5A6",
"H. c #82A7A8",
"J. c #83ACAD",
"K. c #8AADAD",
"L. c #8AA7A6",
"P. c #88B0AF",
"I. c #82AFB1",
"U. c #8CAFB0",
"Y. c #83B3B5",
"T. c #8AB4B5",
"R. c #83B6B9",
"E. c #8AB6B9",
"W. c #83B9BC",
"Q. c #8BBABC",
"!. c #92B3B4",
"~. c #94BCBD",
"^. c #9AB7B7",
"/. c #91ADAC",
"(. c #B4ADA8",
"). c #A5BABB",
"_. c #B7B6B3",
"`. c #C99983",
"'. c #D49A81",
"]. c #D19F91",
"[. c #CDA388",
"{. c #D4A282",
"}. c #DCA484",
"|. c #DBA88B",
" X c #DBAD91",
".X c #E6AA8B",
"XX c #E9AE92",
"oX c #EAB396",
"OX c #F3BB9D",
"+X c #F1B496",
"@X c #EAB18F",
"#X c #C8BAB2",
"$X c #F6BEA1",
"%X c #C7C1BC",
"&X c #F9C0A3",
"*X c #8ABCC1",
"=X c #96BEC2",
"-X c #A2BFC1",
";X c #9AC1C4",
":X c #A5C3C4",
">X c #ABC4C5",
",X c #ADC9CA",
"<X c #B7C8C8",
"1X c #BBD0D2",
"2X c #C4CCC9",
"3X c #D5CDC7",
"4X c #CCD1CE",
"5X c #C8D4D3",
"6X c #D7D7D5",
"7X c #D4D5D3",
"8X c #D6D9D6",
"9X c #D9D9D6",
"0X c #DBDAD7",
"qX c #D4DAD9",
"wX c #DBDAD8",
"eX c #DCDBD9",
"rX c #DEDDD9",
"tX c #DEDDDB",
"yX c #DFDEDA",
"uX c #DDDCD9",
"iX c #DFDEDC",
"pX c #DCDDDA",
"aX c #D8D7D5",
"sX c #DAD2CA",
"dX c #E1DEDB",
"fX c #E0DFDD",
"gX c #E3DFDC",
"hX c #E1DFDC",
"jX c #E6DDD5",
"kX c #E1E0DE",
"lX c #E2E1DF",
"zX c #E2E1DE",
"xX c #E2E1DD",
"cX c #E4E1DD",
"vX c #E2E1DE",
"bX c #EEE4DB",
"nX c #E3E2E0",
"mX c #E3E2E0",
"MX c #F9F0E6",
"NX c #DEE2E0",
/* pixels */
"6X4X!./.K.!.^.^.).).).).).<X<X_.<X<X2X2X2X2X4X7X7X6X9XwXuXiXkXkXkXkX8XG.i.g.g.L.H.j.L.J.K.8XkXcXgXhXhXuXhXhXuXuXuXeXuXeX9X6XL.g.",
"6X6X6X6X6XaX9X9X9X9X9XwXwXwXeXeXeXeXuXuXuXuXiXiXfXkXhXhXkXkXkXkXkXkX9XL.g.H.i.H.H.i.j.J.K.8XkXgXfXfXhXhXhXhXuXuXuXuXuXeXwX6XL.i.",
"6X6X6X6X9X9X9X9X9X9XwXwXeXeXeXeXeXeXuXuXuXuXuXfXfXfXkXkXkXkXkXkXkXkX9XL.H.J.j.H.H.g.J.K.T.8XkXfXfXfXhXhXhXuXuXuXuXuXuXuXeX6XL.t.",
"6X6X6X9X9X9X9X9X9XwXwXeXeXeXuXuXuXuXuXuXuXuXuXfXfXkXkXkXkXkXkXkXkXkXwXK.H.J.j.H.J.H.K.K.K.8XkXkXgXgXhXhXuXuXuXuXuXuXuXuXuX6XL.H.",
"9X9X9X9X9X9X9XwXwXeXeXeXuXuXuXuXuXuXiXuXuXuXfXfXkXkXkXkXkXkXkXkXkXkXwXK.H.j.j.j.l.l.J.H.J.8XkXkXcXfXfXhXhXuXuXuXuXuXuXuXuX7XH.g.",
"9X9X9X9X9XwXwXwXeXeXeXuXuXuXuXuXuXuXiXfXfXfXfXkXkXkXkXkXkXkXkXkXkXkXuXK.J.H.j.H.l.l.l.H.K.8XkXkXcXfXfXhXhXuXuXuXuXuXuXuXuX7Xj.j.",
"9X9X9XwXwXwXeXeXeXeXuXuXuXiXuXuXuXiXiXfXfXfXfXfXkXkXkXkXkXkXkXkXkXkXuXU.J.P.J.K.J.J.H.K.T.8XkXcXcXfXcXcXhXhXuXuXuXuXuXuXuX7XJ.J.",
"9XwXwXwXwXeXeXeXuXuXuXuXiXuXuXiXiXiXiXfXfXfXfXkXkXkXkXkXkXkXkXkXkXnXiXK.J.J.l.Y.J.l.j.J.T.8XcXcXkXcXcXfXhXkXhXhXhXuXuXhXuX7XT.K.",
"wXwXwXwXeXeXeXeXuXuXuXuXuXuXuXuXiXiXfXfXfXfXkXkXkXkXkXkXkXkXkXkXkXnXiX/.Y.Y.l.T.Y.J.j.Y.!.8XcXcXcXcXgXgXfXhXhXhXhXuXhXhXuX7XH.l.",
"wXwXwXeXeXuXuXuXuXuXuXuXuXuXuXiXiXiXfXkXkXkXkXkXkXkXkXkXkXkXkXnXkXnXiX!.E.Y.I.T.Y.Y.l.T.!.qXcXcXcXcXcXcXgXhXhXhXhXhXhXhXuX7Xl.H.",
"wXwXeXuXuXuXuXuXuXuXuXuXuXuXuXiXiXfXfXkXkXkXkXkXkXkXkXkXnXnXkXnXkXnXkX^.!.T.Y.E.Y.T.Y.E.~.qXcXcXcXcXcXcXcXgXgXgXhXhXhXhXuX7XK./.",
"0X0X0XuXuXuXuXuXuXuXuXuXuXuXuXhXfXfXkXkXkXkXkXkXkXkXkXkXnXnXkXkXkXnXkXT.T.Y.Y.Y.Y.E.l.Y.E.qXcXcXcXcXcXcXcXkXgXgXhXhXhXhXuX7Xj.J.",
"uXuXuXuXuXuXuXuXuXuXuXuXuXuXfXfXkXiXkXkXkXkXkXkXkXkXnXnXkXnXnXkXkXcXkX!.E.Y.v.Y.Y.E.T.Y.E.qXcXcXcXcXcXcXfXfXgXgXhXhXhXhXuX7Xg.H.",
"uXuXuXuXuXuXuXuXuXuXuXuXuXfXfXkXfXfXkXkXkXkXkXkXkXeXwXkXnXnX_.~ ^ (.(.F.E.T.Y.T.E.!.E.E.E.qXcXcXcXcXcXcXkXkXfXfXhXhXhXhXuX7XH.J.",
"4X2X2X<X<X<X<X>X>X).).).).^.^.!.!.!.2XkXkXkXkXkXkX_.A.uX4X(.k , , + , k y.K.J.T.E.E.I.T.E.qXcXcXcXcXcXcXcXcXfXfXhXhXhXhXuX7XU.).",
"l.v.I.k.v.v.v.k.l.k.l.h.d.j.f.f.f.j.<XkXkXkXkXaX%X$.I Y k k i y % - t r z U ;.K.E.E.v.E.~.qXnXcXcXkXcXcXkXkXfXfXhXhXhXuXuX7X^.6X",
"k.v.Y.s.c.c.c.s.k.k.k.k.k.a.f.h.h.f.>XkXkXkX4X~ j 3 < y t , & o & , i 3 i z z P y.E.v.R.Q.5X5X5X5X5X2X2X2X1X<X<X<X,X>X>X:X^.^.^.",
"s.k.v.p.c.k.k.a.s.h.k.k.l.a.f.h.k.d.>XkXkXuXS.u : , y < & & & * < y y < , u l y s G.v.Y.E.Y.v.Y.I.T.J.K.K.T.J.I.Y.Y.v.l.J.J.J.J.",
"c.v.v.p.c.v.k.k.l.c.a.a.a.h.h.d.d.h.:XkX9XS.j , * * , - * 3 u u t , , & o , 3 , * g u.N.W.N.N.Y.Y.v.l.l.J.T.Y.c.v.Y.v.I.I.I.l.j.",
"c.c.v.p.c.k.c.a.h.k.k.a.d.h.j.a.k.d.-XkXS.a 3 * * * * * < t , , & o o % * & & , : - v h.N.N.c.N.v.v.v.h.I.E.k.c.v.v.c.k.c.c.v.l.",
"N.N.N.s.N.N.N.N.v.v.l.l.l.j.l.h.k.h.:XwX^ < * - , < < 3 % * % & X X * r d d r < , - # ( y.I.N.E.Y.Y.Y.Y.Y.E.v.v.Y.Y.N.Y.Y.Y.I.I.",
"c.M.N.s.V.N.c.N.Y.Y.v.J.J.l.l.l.h.k.-X7XU 3 < 3 < t y < % % ; r r d _ 5.5.<.+.) z ; , y I ! Y.Q.Q.E.Y.E.T.E.Y.N.Y.E.Y.Y.E.E.E.Y.",
"N.M.N.s.M.M.M.c.v.N.v.d.j.i.g.h.d.j.^.2Xj u y , t y * ; d z ) +.{.{.|.+X@X.Xq.0.>.x z l l I y.N.Y.Y.v.v.l.I.c.c.v.v.c.c.v.v.Y.v.",
"V.V.V.c.N.M.c.c.v.c.k.h.f.i.g.f.h.j.U.#Xj , * - , * o ; X.7.|.XX$XOXOXOX+X.Xq.9.5.X.H l y u W N.R.E.l.l.v.Y.c.c.N.N.N.c.v.Y.Y.k.",
"R.R.V.v.Y.N.N.N.N.c.k.h.f.f.j.j.h.j./.(.6 - + & * o o r 1.oXoXOX&X&XOXOX+X@X}.8.7.>.c i , 3 ( Y.R.E.l.l.T.E.v.N.Y.Y.Y.N.Y.Y.Y.l.",
"N.M.N.k.N.N.N.c.c.k.d.u.d.f.f.u.f.f.L.A.5 + + & o & z +.|.oXOXOX$X$XOX+XXX.X}.q.7.>.z < : 3 R v.Y.Y.v.v.E.E.N.N.R.E.Y.Y.Y.Y.T.Y.",
"N.V.R.N.N.Y.Y.k.c.k.a.u.d.f.f.u.f.t.t.S.: + & * & s &.{.oXOX$X$X&X&X$X+X+X.X}.{.7.>.x - & : r.Y.Y.Y.Y.v.Y.E.Y.Y.Y.Y.v.I.Y.I.I.P.",
"N.V.E.Y.Y.Y.V.v.N.N.c.k.a.k.l.d.h.h.T._.a : , < i 2.|.XXOXOX$X&X&X&X$XOX+X@X|.{.5.>.' * O @ f.W.R.Y.N.N.Y.R.N.N.Y.Y.I.!.Y.l.v.l.",
"E.E.~.E.Q.E.W.N.Y.Y.Y.J.j.l.J.j.l.l.!.wXZ , s H @.[.[.[. X XoXoXoXXXXXXX X`.7.5.2.&.o.* O w E.Q.E.Q.Y.N.Y.E.Y.Y.Y.E.!.^.T.J.T.I.",
"N.M.B.Y.N.V.V.N.N.c.v.c.k.k.k.h.h.v.T.8X^ : H #. .H x z z H *.6.{.{.5.+.x s i z z  . .* O F V.Q.W.R.M.c.N.E.V.N.v.R.Y.Y.v.v.I.v.",
"N.c.N.Y.N.N.B.N.Y.N.N.v.k.c.c.k.c.Y.E.pXA.5 H @.{ H H x s d ) >.{.8.+.) z z H ' T ] ..3 O A.=XQ.Q.Q.M.c.N.R.M.N.N.E.E.v.l.I.Y.v.",
"Y.N.Y.E.Y.R.R.N.Y.R.Y.k.v.v.v.v.k.Y.Y.T.y.u T >.%.H H s u d x *.OX.XX.x i s k c H [ #.y = _.>X~.Q.~.W.N.R.E.Q.W.R.E.E.Y.v.Y.T.Y.",
"N.N.N.Q.Y.R.W.R.N.Y.Y.c.l.v.I.v.c.Y.c.s.y.| [ 3.&.H H I I o.| 5.+X.X+.) ) k I f x #.@.s z D.,XW.Q.=XW.R.R.W.W.Q.R.E.R.Y.c.Y.Y.Y.",
"B.M.M.Y.N.V.V.V.N.N.N.z.c.N.N.M.z.N.c.z.g.| @.2.2.<.&.} O.*.7.'.+X.X7.0.*.*.#.} &.,.>.H ) D.,XC.W.Q.V.N.V.=X;X:X;X=XE.R.c.R.E.;X",
"B.B.z.Y.N.M.B.R.V.V.M.z.z.B.B.x.z.M.M.M.t.O.} 2.[.[.[.'.|.oX.X{.+X.X8..XXX|.'.7.`.`.>.' &.`.>XQ.W.W.B.n.V.qXnXkXkXkX5XQ.M.>XpXfX",
"Q.C.V.E.R.R.C.W.R.R.C.V.N.R.R.B.c.N.N.V.L._ | 2. XoXoXOX+XXX{.}.+XXX8.8.XXXXXX|.|.`.>._ O.`.<X*XW.*XW.V.V.NXkX,X,XkXkX:X~.iXfX5X",
"W.B.B.W.N.B.B.V.V.M.B.M.B.B.V.M.c.N.B.V.A.O.1.3.[.oXOX+XXX'.7.1.'.6.<.5.}..X.X.X|.7.%.1.4.].,XC.V.W.C.B.W.nXpX*XC.pXkX:X5XkX1XQ.",
"V.M.N.W.R.B.B.N.N.N.V.M.M.M.N.b.z.N.N.M.A.1.<.>.2.|.XX.X9.0._ f _ ) f | 9.8.}.{.6.>.{ <.'. X>XV.V.W.V.M.*XnXpX,X1XkXpX=XpXkX:XQ.",
"B.c.M.N.N.B.z.c.c.M.M.z.z.c.c.x.x.M.M.M.J.`.2.@.3.`.[.5.<.6.*.X.) ) | +.9.9.8.7.1.&.{ 7.`.3X:XB.M.V.M.M.=XkXnXnXkXpX,XV.pXuX=XV.",
"Y.Y.N.Y.Y.N.M.B.V.N.M.c.c.c.M.s.x.N.M.M.N.F.2.@.3.,.,.<.5.7.2.1.*.*.*.1.6.9.5.,.<.>.[ `.A.qX,XV.C.W.V.V.,XkX5X;XQ.R.W.W.5XkX5X~.",
"Y.Y.N.Y.R.N.M.V.V.N.N.c.c.c.c.s.z.c.M.N.M.k.G.S.3.,.,.5.+.*.1.1.=.<.<.2.1.5.5.>.>.@.S.F.R.qX:XB.V.W.V.N.1XkX<XV.n.V.C.W.;XiXfX5X",
"N.Y.N.Y.R.N.N.N.N.N.N.N.Y.N.v.c.c.N.V.R.V.c.c.J.:.,.,.7.>.O.` ` ` ` ` ` O.<.0.>.>.%.E.V.W.qX>XB.B.W.R.M.5XkX:XB.n.V.V.W.V.,XpXfX",
"c.c.s.c.z.z.M.E.v.z.z.p.p.s.s.p.p.k.z.x.x.s.s.c.S.>.,.7.|.{.4.-.-.-.-.4.9.9.1.&.@.Q c.M.B.qX:Xn.M.W.V.c.;X:XR.b.m.z.M.V.M.M.R.=X",
"l.Y.N.Y.N.N.N.E.Y.v.s.k.c.v.v.s.d.t.y.y.u.s.c.v.;.#.>.,.w.{.6.4.<.<.5.6.q.6.+. .] >   R V.qX:XB.M.W.R.c.N.V.B.B.M.M.V.W.V.C.W.R.",
"v.I.Y.E.R.E.R.R.Y.Y.c.v.v.Y.Y.h.R @ O O # e R F @  ...&.2.6.{.8.8.8.8.8.6.,.o.' H X . $ r.qX:XV.M.W.R.N.V.W.W.W.C.R.W.*X*XW.W.W.",
"k.v.N.Y.Y.N.c.c.N.N.c.c.s.c.c.u.W O .     .     O @. . .,.7.{.}.}.}.}.{.5...' T H X .   w 4X^.d.t.y.v.V.B.V.C.W.W.V.C.C.C.V.V.R.",
"a.p.x.c.z.c.x.z.s.s.p.z.c.z.s.r.Z S # . .   O     @.&. .' @.,.5.5.5.7.1...H T ] H X .   O 8 p p n S g.M.M.b.B.N.M.M.B.V.B.M.c.N.",
"k.k.N.N.c.v.c.N.v.N.c.c.c.c.c.r.Z m D 1     O     ..&...] ' H H ) ) H c c T ] ] ' - +   O = 4 A L Z t.V.V.B.W.R.W.V.W.W.W.Y.N.R.",
"s.v.k.c.c.c.z.M.M.N.M.M.M.c.M.e.N D D D N @ O     X.&...X. .{ c i i z H { ] o.X.' < d + = $.! V L D W N.V.V.W.W.W.V.W.R.R.V.V.V.",
"a.l.k.k.c.c.z.M.V.V.B.V.M.c.M.r.n N L A Z A 7     H &.&.@.....} ] ] [ [ [  . .+.' : c a 3XMXjXA V h 0 f.B.B.C.C.W.C.W.V.W.M.V.V.",
"p.s.s.c.z.M.m.B.B.M.m.B.M.M.M.e.E b n S N (.bX~ @ y } &.@... . . .[  .[ [ ..@...z , D.bXjXMX#XV 0 b m / C.B.C.W.W.B.*XW.W.n.M.V.",
"p.a.M.c.z.M.m.B.B.V.m.V.M.M.y.W L Z b n m sXjX#Xn + c &.&.@.#. .[ [  .#...@.>.' r ~ MXMXjX:.9 9 n 7 @ / v.V.W.W.W.C.C.W.W.M.z.M.",
"s.N.N.N.M.B.M.B.C.R.n.C.C.M.F n B D S n p W _.3XS 1 > ' @.&.@. .[ [ #.#.#.>.>.z > ! %X(.V 9 b 7 # O O @ q y.Q.Q.*XW.W.Q.Q.V.M.V.",
"v.N.N.B.B.V.B.V.C.R.B.C.R.u.w = O @ p M B 0 b $.K n 4 4 H ..@.#.#.#.#.#.@.>...Q p b K p N p @   O # O # @ > G Y.*XW.*X*X~.R.C.W.",
"c.M.M.M.b.B.n.n.B.B.m.a.R 1 @ @ #     2 b A b 8 ~ D 1 4 a I ] ] ] ] ]  .&.' %.U b A h N 0 1 0 1 # # O # @ @ = q r.M.W.W.W.M.V.V.",
"k.k.M.M.M.M.B.n.n.p.R 7 = @ @ @ O O 2 n n 4 1 8 L $.1 9 9 9 j H ' { } #.[ a n Z 7 b N 7 1 0 V P C b N A 9 # # = 2 F j.C.W.B.W.V.",
"k.k.M.B.z.M.B.B.M.v 2 = @ @ @ # 2 0 D Z A Z @ = E S.7 1 4 4 8 p H ' [ H j n m 8 0 m 7 0 p Z A P K U ~ ! P n 2 # @ > v i.Q.W.W.R.",
"Y.l.N.N.M.B.B.N.y.b @ @ 2 p n A A D D N M ! b = 7 n 1 1 2 1 4 0 a u 5 p N b n 1 1 1 7 b K P E ! L Q U A J E Q K n 2 @ v Q.W.W.R.",
"Z.k.N.N.M.B.M.g.^ P 2 2 K ! E Y A D Z n N K S 7 1 w 7 4 7 1 0 0 4 # # 8 9 p n 1 1 1 b A P L V J U ~ J K J U L Q ! V = 0 L.R.N.Y.",
"v.k.N.N.c.M.M.^ ! ! n b P U U K A S A A A A K n 1 7 1 2 2 2 2 4 1 # 2 9 9 b b M K P K A B A A U ! U M A A P A P E L 8 A ^ Y.c.v.",
"s.a.c.z.c.x.f.E K E A 4 A ! U K J Z M A A A E A 7 b Z M m b 9 8 7 1 7 n n p 7 h j n p 9 A U A K A n N K P K L U L M 8 S S I.N.v.",
"k.k.v.c.N.M.t.L L E A 7 M E L A P B n M A Z V h 7 b S p 4 7 4 a 0 2 8 M n b 4 8 p n h n L K U E A j A P ! ! U E A p N C A G.Y.v.",
"k.c.c.c.M.c.^ E E K K p 4 U A A P N n n A A V N p b m p 6 8 p n 0 1 h A B n 7 p m n A A B A A A n B K K A K Q ~ m p N J L y.Y.v.",
"k.M.c.c.M.f.W Y L A A m 4 A L A C M B A L E A M p p b N A M h n h 1 b A ! L 9 j j N P E J A B n n A K K A C ! U 7 M N K A / v.h."
};
