/* XPM */
static char *result[] = {
/* columns rows colors chars-per-pixel */
"32 32 68 1 ",
"  c #544B58",
". c #18140E",
"X c black",
"o c #2E2F2F",
"O c #748C9B",
"+ c #544B57",
"@ c #18130E",
"# c #748D9B",
"$ c #544C58",
"% c #2E3030",
"& c gray8",
"* c #151515",
"= c #161616",
"- c gray9",
"; c #181818",
": c #191919",
"> c gray10",
", c #1B1B1B",
"< c gray11",
"1 c #282828",
"2 c gray16",
"3 c #2A2A2A",
"4 c gray17",
"5 c #2C2C2C",
"6 c #2D2D2D",
"7 c gray18",
"8 c #2F2F2F",
"9 c gray19",
"0 c #1D1D1D",
"q c #1E1E1E",
"w c gray12",
"e c #8D8D8D",
"r c #909090",
"t c #929292",
"y c #959595",
"u c #989898",
"i c #9B9B9B",
"p c gray62",
"a c gray63",
"s c #A4A4A4",
"d c #A7A7A7",
"f c #AAAAAA",
"g c gray68",
"h c #202020",
"j c gray54",
"k c gray69",
"l c gray70",
"z c #B6B6B6",
"x c #18130F",
"c c #B9B9B9",
"v c #BCBCBC",
"b c #C0C0C0",
"n c #313131",
"m c #323232",
"M c gray20",
"N c #343434",
"B c #353535",
"V c gray21",
"C c #373737",
"Z c gray22",
"A c #393939",
"S c #3A3A3A",
"D c gray23",
"F c #3C3C3C",
"G c gray24",
"H c #3E3E3E",
"J c #010000",
"K c gray25",
/* pixels */
"  .XoO++++++++@XoO++++++@Xo#$$$$",
"oo XOooXXXXXXXXXXXXXXXXXXXOo%%%%",
"oooX XX&**==--;;;::>>,,<<XXo%%%%",
"oooXX1234567899;::>>,,<<00qX%%%%",
"oo.X123456XXXXXXXXXXXX<00qqwX%%%",
"ooX12345XXertyuipasdfgXXqqwhwX%%",
"..X2345XjertyuipasdfgklzXwhwqXx%",
"XX2345XjertyuipasdfgklzcvXwqq0XX",
" X345XjertyuipasdfgklzcvbvXq00X%",
"oX456XertyuipasdfgklzcvbvcX00<X#",
"oX56XertyuipasdfgklzcvbvczlX<<X$",
"oX67XrtyuipasdfgklXXvbvczlkX<,X$",
"oX78XtyuipasdfgklzXvXvczlkgX,,X$",
"oX89XyuipasdfgklzcXbvXzlkgfX,>Xx",
"XX99XuipasdfgklzcvXvczXkgfdX>>XX",
" X9nXipXXXXXXXXXXXXczlkXfdsX>:X$",
"oXnmXpaXdfgklzcvbvczlkgfXsaX::X%",
"oXmMXasXfgklzcvbvczlkgfXsapX:;X%",
"oXMNXsdXXXXXXXXXXXXkgfXsapiX;;X%",
"oXNBXdfgklzcvbvczlXgfXsapiuX;;X%",
"oXBVXfgklzcvbvczlkXfXsapiuyX;-X%",
"oXVCXgklzcvbvczlkgXXsapiuytX--X%",
".XCZAXlzcvbvczlkgfdsapiuytX--=Xx",
"XXZASXzcvbvczlkgfdsapiuytrX-==XX",
" XASDFXvbvczlkgfdsapiuytrX-==*X%",
"ooXDFGHXvczlkgfdsapiuytrX-==*XJ#",
"ooXFGHKHXXlkgfdsapiuytXX-==**XJ$",
"oooXHKHGFDXXXXXXXXXXXX--==**XxX$",
"ooooXHGFDSAZCVB>::;;;--==**X%xX$",
"oooooXX00<<,,>>::;;;--==*XXo%xX$",
"o.o..@@XXXXXXXXXXXXXXXXXX@o@xXXx",
"XXXXXXXXXXXXXXXXXXXXXXXXXXXXJXXX"
};
