/* XPM */
static char *result[] = {
/* columns rows colors chars-per-pixel */
"32 32 136 2 ",
"   c #010000",
".  c #090705",
"X  c #0C0A07",
"o  c #0C0C0A",
"O  c #12120E",
"+  c #18130E",
"@  c #131312",
"#  c #1C1712",
"$  c #1B1B15",
"%  c #171818",
"&  c #1F1F18",
"*  c #3B3B03",
"=  c #3B3C0C",
"-  c #24241C",
";  c #2B291F",
":  c #2B261D",
">  c #201C21",
",  c #272822",
"<  c #2B2B22",
"1  c #2E2F2F",
"2  c #333126",
"3  c #34342A",
"4  c #3A3729",
"5  c #3C3C2E",
"6  c #2E3030",
"7  c #333432",
"8  c #373835",
"9  c #393A35",
"0  c #3B3C39",
"q  c #732C07",
"w  c #3F403B",
"e  c #414101",
"r  c #42410B",
"t  c #4A4A0A",
"y  c #4C4C15",
"u  c #545414",
"i  c #54541C",
"p  c #5C5C1D",
"a  c #5D5D21",
"s  c #454131",
"d  c #4B4736",
"f  c #4C4837",
"g  c #42433E",
"h  c #4E4B39",
"j  c #5E543C",
"k  c #61563E",
"l  c #626223",
"z  c #6C6C2D",
"x  c #464740",
"c  c #474841",
"v  c #4A4B43",
"b  c #4F5047",
"n  c #505047",
"m  c #54554A",
"M  c #57584C",
"N  c #5A5B4E",
"B  c #544B57",
"V  c #544C58",
"C  c #5D5D50",
"Z  c #5F585E",
"A  c #655A41",
"S  c #685D43",
"D  c #61585F",
"F  c #5F6052",
"G  c #74664A",
"H  c #736A54",
"J  c #7E735B",
"K  c #675F64",
"L  c #686065",
"P  c #6F6768",
"I  c #6F686A",
"U  c #736C6C",
"Y  c #78706E",
"T  c #7B7470",
"R  c #9B3200",
"E  c #B24F1F",
"W  c #857B3E",
"Q  c #B5703E",
"!  c #D55D1B",
"~  c #D25412",
"^  c #D76423",
"/  c #D96E2D",
"(  c #C17E3F",
")  c #8B6B46",
"_  c #8F6F49",
"`  c #92714B",
"'  c #98754C",
"]  c #83785E",
"[  c #B67642",
"{  c #B87743",
"}  c #BC7A46",
"|  c #BF7E4A",
" . c #A07F5A",
".. c #C07F4C",
"X. c #C47F50",
"o. c #808000",
"O. c #86860A",
"+. c #8D8D15",
"@. c #8F8F18",
"#. c #93931D",
"$. c #969622",
"%. c #989826",
"&. c #AEA33E",
"*. c #E38734",
"=. c #EC9E3A",
"-. c #C0C000",
";. c #CACA1F",
":. c #CACA20",
">. c #D5CA3E",
",. c #8D8143",
"<. c #A68547",
"1. c #A88749",
"2. c #AA894A",
"3. c #A1815B",
"4. c #B08B6A",
"5. c #C1804C",
"6. c #C38343",
"7. c #D08F43",
"8. c #C09F47",
"9. c #C88554",
"0. c #E38F4A",
"q. c #C1A049",
"w. c #DAB947",
"e. c #F6B541",
"r. c #ECA651",
"t. c #ECAE67",
"y. c #FFCC47",
"u. c #FFD55E",
"i. c #F6C66E",
"p. c #FFDD74",
"a. c #748C9B",
"s. c #80969F",
"d. c #BBA384",
"f. c #F6CE84",
"g. c #FFE58B",
"h. c #FFEDA1",
/* pixels */
"V V +   1 a.B B V V B B B B q R 1 a.B B B B B B +   1 a.B V V V ",
"1 1 B   a.1 1 1 1 1 1 1 1 7 E ~ s.9 7 1 1 1 1 1 B   a.1 6 6 6 6 ",
"1 1 1   V 1 1 1 1 1 1 7 0 Q ! ! d.v 0 6 1 1 1 1 B   B 1 6 6 6 6 ",
"1 1 1   V 7 8 0 9 7 7 g H ^ ^ ^ X.n v 9 7 8 g 9 7   B 1 6 6 6 6 ",
"1 1 +   V 0 x v v v v n } ^ =./ / J n v v v v g : . V 1 6 6 6 6 ",
"1 1 +   V c n m M M m } / *.y.*./ | C M M M m n 2 X V 1 6 6 6 6 ",
"+ +     ; P M C d N G / / e.y.e./ / | C d N d s - + + V 6 6 + 6 ",
"      O - 2 3 5 5 5 [ / e.y.y.y.e./ / S 9 5 { _ < &             ",
"V B V L I Y T h 9 F / / y.y.p.y.y.*./ ..s 2./ / Y I Z B V +   6 ",
"1 7 g b N S ] 9./ d./ =.y.g.h.g.y.e./ / { / / / 3.m x 7 6 V   a.",
"1 0 v m F 2./ / / / / =.y.h.h.h.g.y./ / / / / / / M b w 7 6   V ",
"7 g n M 5./ / / / / / *.p.h.h.h.h.y./ / / / e./ / [ m v 0 +   V ",
"8 v m 3./ / / =./ / / / r.h.h.h.h.i./ / / e.y.e./ / ' n x #   B ",
"0 4 M } / / e.y./ / / / / t.t.t.t./ / / e.y.y.y.=./ / 2 , X   + ",
"$ ; 3 / / e.y.y.e./ / / / / / / / / / *.e.u.u.y.y./ / <.i +     ",
"L I ' / =.y.y.y.e./ / / 2.2.2.2.` [ / / *.h.g.y.y.=./ 1.p 7 V V ",
"g b 4./ e.y.g.h.0./ / / ` z z 9 z 2./ / / g.h.g.y.=./ <.p , 6 6 ",
"w h 3./ y.p.h.f./ *.*./ Q 4 w z ` / / / / 0.h.h.p.=.^ <., - 6 6 ",
"8 v ` / =.p.f./ / e.e./ / S z ,./ / / *./ / f.h.f./ / <.- y @ 6 ",
"7 g _ / / i.0./ *.y.y.*./ / S 6./ / *.y.*./ / / / / / ) u t = . ",
"1 9 2 Q ^ / / *.y.y.y.y.*./ 7./ / *.y.y.y.*./ / / [ W p u e e   ",
"1 7 ; ; w ` / =.y.u.u.y.e./ / / *.y.y.y.y.e./ / ,.l l u e e e   ",
"+ + . - %.q./ y.u.h.h.u.y.*./ / e.y.g.p.y.y.*./ 1.l p e e e *   ",
"      +.%.q./ y.p.h.h.h.u.=./ / y.u.h.h.u.y.=./ 1.l u e * *     ",
"V B > +.;.w./ e.g.h.h.h.p.=./ / e.g.h.h.h.u.=./ 1.l u r @ o   6 ",
"1 1 @ +.;.>./ *.f.h.h.h.h.*./ / *.h.h.h.h.g.*./ 1.p i @ 6 V   a.",
"1 1 @ o #.$.[ / 7.t.t.t.0./ / / / 0.t.t.t.0./ / <.a , 6 1 7   B ",
"1 1 = . + - W / / / / / / / A A / / / / / / / 6.W 2 8 6 1 @   V ",
"1 % . o.O.$ a j 2.q.y.8._ k 2 %.&.w.w.8.2.' k 3 3 g 7 1 6 +   B ",
"1 @ o.o.o.O u - #.$.;.;.#.- - - @.:.;.$.$.2 4 h g 8 1 1 6 +   B ",
"1 . o.-.o.  t o $ $ +.+.$ O t o + $ +.$ $ - D 8 6 + 1 + +     @ ",
"          e e e           e   e *                               "
};
