/* XPM */
static char *result[] = {
/* columns rows colors chars-per-pixel */
"32 32 44 1 ",
"  c #544B58",
". c #18140E",
"X c black",
"o c #2E2F2F",
"O c #748C9B",
"+ c #544B57",
"@ c #18130E",
"# c #748D9B",
"$ c #544C58",
"% c #2E3030",
"& c #544C57",
"* c #997000",
"= c #9F7400",
"- c #A67900",
"; c #AD7D00",
": c #B48200",
"> c #BA8600",
", c #9A7100",
"< c #18130F",
"1 c #B98500",
"2 c #BB8600",
"3 c #B88400",
"4 c #B18000",
"5 c #A77900",
"6 c #9B7100",
"7 c #9B7200",
"8 c #AB7C00",
"9 c #B68300",
"0 c #9A7000",
"q c #B58200",
"w c #010000",
"e c #9C7200",
"r c #A67800",
"t c #BA8500",
"y c #B38100",
"u c #A87A00",
"i c #FFF0C6",
"p c #D7AA2D",
"a c #D7AA2E",
"s c #554F3F",
"d c #D39F12",
"f c #343431",
"g c #4C483B",
"h c #010100",
/* pixels */
"  .XoO++++++++@XoO++++++@Xo#$$$$",
"oo XOooooooooo+XOooooooo+XOo%%%%",
"oooX ooooooooooXOooooooo+X&o%%%%",
"oooX ooooooooooX+ooooooooX&o%%%%",
"oo.X ooooooooo@X+ooooooo@X&o%%%%",
"oo.X ooooooooo@X+ooooooo@X&o%%%%",
"..XX.+oo@*****=-;:>,***@XX@&%%<%",
"XXXXXXX******123456******XXXXXXX",
"     +*******,789210******&&$<X%",
"ooooo********012q56********o%$w#",
"ooooo*********erq2t6*******o%%w$",
"ooooo********012q57********o%<X$",
"ooooo*********erq2t6*******o%<X$",
"o.o..********01yue,********@<XX<",
"XXXXX********iiiiiii*******XwXXX",
"  .Xopiiiiiiiiiiiiiiiiiiiip&$$$$",
"oo XppiiiiiXXiiiiiiXXiiiiipp%%%%",
"ooopppiiiiiXXiiiiiiXXiiiiippp%%%",
"oo.ppppiiiiXXiiiiiiXXiiiipppp%%%",
"ooappppiiiiXXiiiiiiXXiiiippppp%%",
"ooiippsddiiXXiiiiiiXXiidd+ppii%%",
"ooiiiofgddddddddddddddddX+oiii%%",
"..iii+oo@ddddddddddddddXh@&iii<<",
"XXXXXXXXXXXXXddddddXXXXXXXXXXXXX",
"     ++@XXXXX++++++XXXX+++&&$<X%",
"ooooooo+XXXXXooooooXXXXooooo%$w#",
"ooooooooX+ooooooooooX+oooooo%%w$",
"ooooooo@X+ooooooooo@X+oooooo%<X$",
"ooooooo@X+ooooooooo@X+oooooo%<X$",
"ooooooo@X+ooooooooo@X+oooooo%<X$",
"o.o..@@XX@+oo@o@@@@XX@+oo@o@<XX<",
"XXXXXXXXXXXXXXXXXXXXXXXXXXXXwXXX"
};
